<svg version="1.1" id="Layer_1" xmlns="http://www.w3.org/2000/svg" xmlns:xlink="http://www.w3.org/1999/xlink" x="0px" y="0px"
	 width="100%" viewBox="0 0 1024 1024" enable-background="new 0 0 1024 1024" xml:space="preserve">
<path fill="#000000" opacity="1.000000" stroke="none" 
	d="
M500.398804,830.443115 
	C483.524078,845.294678 463.890869,853.323608 442.322021,856.975342 
	C436.269348,858.000122 430.140594,858.481567 423.952087,858.463501 
	C388.457031,858.359802 352.961517,858.402039 317.466187,858.392944 
	C316.299774,858.392639 315.132324,858.400208 313.967133,858.356628 
	C311.932556,858.280579 309.774170,858.134888 309.001343,855.860413 
	C308.261292,853.682373 310.202423,852.619385 311.461670,851.358154 
	C366.906128,795.825500 422.369171,740.311279 477.795563,684.760559 
	C498.270935,664.239258 518.737427,643.707825 539.059021,623.034668 
	C549.440857,612.473267 554.618164,599.545166 554.640564,584.741516 
	C554.711426,537.914612 554.880310,491.086029 554.570679,444.260986 
	C554.382690,415.832581 564.886292,391.891907 584.279602,371.889130 
	C608.750427,346.649200 633.860168,322.027313 658.805481,297.250793 
	C661.625916,294.449432 665.164368,292.371033 668.434448,289.908661 
	C665.279358,286.666992 663.346130,287.403534 661.676880,287.402527 
	C575.021484,287.350311 488.365601,287.498352 401.711029,287.224976 
	C385.523315,287.173889 373.082550,293.480225 362.064728,304.766479 
	C341.229248,326.109558 319.469940,346.566772 299.011902,368.257355 
	C282.197021,386.085236 262.278412,393.949799 238.032242,393.646973 
	C196.044189,393.122498 154.046051,393.405151 112.052147,393.347382 
	C111.052437,393.346008 110.045334,393.396057 109.054375,393.296173 
	C105.338951,392.921753 104.855522,390.853302 106.818787,388.197479 
	C108.691475,385.664246 110.879570,383.336395 113.111946,381.100922 
	C173.514633,320.613586 233.654907,259.859924 294.510956,199.831924 
	C317.259949,177.392471 345.238098,164.208679 377.335999,160.567703 
	C388.091675,159.347641 398.872650,158.705963 409.693634,158.705597 
	C571.672607,158.700317 733.651611,158.699707 895.630615,158.688766 
	C902.961670,158.688278 910.308044,158.792557 917.429382,160.668549 
	C933.995728,165.032669 938.536438,177.824554 927.974304,191.174759 
	C919.484680,201.905441 909.081177,210.887878 899.439758,220.553558 
	C847.071411,273.053436 794.451599,325.303680 742.273621,377.991730 
	C728.134888,392.268738 713.114807,405.884735 702.439697,423.310242 
	C691.385986,441.353973 684.453613,460.624878 683.314331,481.901550 
	C681.174683,521.860474 682.414429,561.845947 682.513428,601.811707 
	C682.589783,632.660889 672.202515,658.924683 650.778259,680.585938 
	C603.906677,727.975891 556.637390,774.972534 509.503418,822.102661 
	C506.679535,824.926392 503.616943,827.511414 500.398804,830.443115 
M892.628845,218.154465 
	C902.983643,207.543976 914.139404,197.694260 923.613831,186.252197 
	C930.253967,178.233063 928.552551,171.998932 919.016052,167.800156 
	C913.542603,165.390274 907.739319,165.304123 901.881775,165.305191 
	C737.396851,165.335007 572.911926,165.318741 408.426971,165.362503 
	C400.452606,165.364624 392.497437,165.518692 384.500214,166.142426 
	C350.516693,168.792969 321.283051,182.245834 297.323761,205.886902 
	C239.911148,262.536957 183.137970,319.835175 126.131416,376.896454 
	C123.277794,379.752777 120.657639,382.842346 117.274506,386.538055 
	C120.245285,386.669647 122.046135,386.807068 123.847916,386.820770 
	C162.170654,387.112488 200.494400,387.304657 238.815964,387.704346 
	C260.285736,387.928253 278.182617,380.512604 293.241455,364.975891 
	C315.390869,342.123657 338.049103,319.760620 360.690033,297.391052 
	C368.405273,289.768280 376.654572,282.607971 388.359039,281.936127 
	C395.828613,281.507355 403.303528,280.850342 410.776306,280.846832 
	C498.434357,280.805695 586.092468,280.863525 673.750549,280.936401 
	C675.955322,280.938232 678.927490,280.119995 679.899658,282.826996 
	C680.727722,285.132538 678.284180,286.581543 676.840210,288.136780 
	C676.273865,288.746704 675.648499,289.301270 675.059631,289.890686 
	C646.674561,318.303955 618.234985,346.663086 589.925354,375.151276 
	C570.077576,395.124207 560.118896,419.223236 560.328918,447.475067 
	C560.667053,492.954224 559.849548,538.435364 561.142944,583.917419 
	C561.586548,599.519348 556.023438,613.553284 545.582703,625.495728 
	C537.891113,634.293640 529.404968,642.301208 521.174744,650.557007 
	C455.407318,716.528625 389.561310,782.421753 323.772919,848.372498 
	C322.730927,849.416992 320.766296,850.100586 321.498779,852.662292 
	C323.611450,852.662292 325.757751,852.662109 327.904053,852.662231 
	C358.567902,852.663879 389.231781,852.676331 419.895630,852.655884 
	C424.545837,852.652771 429.156738,852.389832 433.814972,851.860901 
	C460.706879,848.807617 483.974579,838.536133 503.252258,819.173706 
	C550.393188,771.825623 597.757385,724.700012 644.992310,677.445374 
	C651.962463,670.472351 657.883606,662.664795 663.022888,654.219788 
	C672.951538,637.904907 676.396423,619.870361 676.557495,601.214233 
	C676.882629,563.553833 676.628113,525.888611 676.673157,488.225464 
	C676.687988,475.846436 678.597351,463.715759 682.294434,451.909760 
	C690.101929,426.977692 704.858215,406.575165 723.167358,388.271790 
	C779.611816,331.845093 835.837280,275.199341 892.628845,218.154465 
z"/>
<path fill="#000000" opacity="1.000000" stroke="none" 
	d="
M456.490204,598.490479 
	C400.805939,654.535767 345.301086,710.261169 289.970703,766.159363 
	C270.045715,786.288879 250.540710,806.834045 230.841217,827.186768 
	C230.030212,828.024658 229.228989,828.878784 228.353363,829.645569 
	C227.370743,830.506226 226.362198,831.660706 224.878250,830.708191 
	C223.467331,829.802551 223.875458,828.465881 224.205673,827.123413 
	C226.475296,817.896301 229.809433,809.006897 233.023224,800.099670 
	C257.415649,732.494507 281.932648,664.934265 306.381531,597.349487 
	C307.833771,593.335022 309.033356,589.229187 310.342987,585.189087 
	C307.799561,583.896240 305.601410,584.371216 303.494171,584.366699 
	C285.496429,584.328491 267.498505,584.381348 249.500702,584.358643 
	C243.804733,584.351440 240.672531,581.647766 239.375595,576.854248 
	C238.590988,573.954346 239.981888,572.485046 241.654938,570.821899 
	C258.078735,554.495850 274.735565,538.396362 290.877808,521.796387 
	C341.064240,470.186798 392.518433,419.842438 443.193634,368.721680 
	C447.532776,364.344391 451.669556,359.766937 455.984772,355.365234 
	C457.452362,353.868225 458.851837,352.055939 461.419922,352.182373 
	C463.491180,354.323151 462.226440,356.502838 461.517853,358.651489 
	C444.336823,410.748993 427.137207,462.840393 409.984161,514.947083 
	C407.958466,521.100647 406.393341,527.411621 404.220367,533.509033 
	C402.700134,537.774902 404.101868,538.716553 408.185699,538.703125 
	C438.848389,538.601868 469.511536,538.648499 500.174561,538.649170 
	C502.007690,538.649231 503.854004,538.515259 505.670227,538.691284 
	C507.519073,538.870422 509.977539,537.721863 510.997437,540.146484 
	C512.070007,542.696411 510.388306,544.543396 508.681427,546.250671 
	C491.361206,563.574158 474.051331,580.907898 456.490204,598.490479 
M303.274231,623.594971 
	C280.631165,686.424133 257.988129,749.253357 235.345062,812.082520 
	C323.394928,722.780579 412.136780,634.451355 499.930725,544.986389 
	C497.910980,544.373108 496.278290,544.373413 494.645630,544.373108 
	C463.657104,544.366821 432.668549,544.370422 401.680023,544.345703 
	C395.330963,544.340637 394.786285,543.542053 396.528748,537.268616 
	C396.751129,536.468079 396.932617,535.654663 397.188812,534.865295 
	C408.890717,498.814484 420.599426,462.765930 432.305908,426.716644 
	C438.199707,408.567139 444.090759,390.416779 449.983063,372.266815 
	C381.129639,439.360718 313.711243,507.666260 246.361206,575.884338 
	C248.204956,579.556641 251.158783,578.640503 253.656281,578.539062 
	C273.136597,577.747925 292.625885,577.681580 312.116272,577.674622 
	C318.416290,577.672363 319.102509,578.369629 317.092773,584.286743 
	C312.709930,597.190613 308.030853,609.993774 303.274231,623.594971 
z"/>
</svg>